<?xml version="1.0" standalone="no"?>
<!DOCTYPE svg PUBLIC "-//W3C//DTD SVG 20010904//EN"
 "http://www.w3.org/TR/2001/REC-SVG-20010904/DTD/svg10.dtd">
<svg version="1.0" xmlns="http://www.w3.org/2000/svg"
 width="348.000000pt" height="348.000000pt" viewBox="0 0 348.000000 348.000000"
 preserveAspectRatio="xMidYMid meet">
<metadata>
Created by potrace 1.11, written by Peter Selinger 2001-2013
</metadata>
<g transform="translate(0.000000,348.000000) scale(0.100000,-0.100000)"
fill="#000000" stroke="none">
<path d="M0 1740 l0 -1740 1740 0 1740 0 0 1740 0 1740 -1740 0 -1740 0 0
-1740z m2205 976 c188 -56 344 -184 425 -350 53 -108 72 -190 73 -306 0 -290
-170 -531 -451 -638 -66 -26 -71 -26 -382 -29 -173 -2 -382 -4 -465 -6 l-150
-2 -3 -322 -2 -323 -185 0 -185 0 0 1001 0 1000 633 -4 c569 -3 638 -5 692
-21z"/>
<path d="M1252 2063 l3 -318 395 -3 c370 -2 399 -1 461 18 80 24 142 75 184
151 27 49 30 62 30 149 0 84 -3 101 -27 145 -34 64 -90 118 -153 147 -49 23
-56 23 -473 26 l-422 3 2 -318z"/>
</g>
</svg>
